{"title":"Cheryl Cole - Parachute [Music Video] 720p [Sbyky]","uid":7991013,"size":103833308,"categoryP":"video","categoryS":"music_videos","magnet":"?xt=urn:btih:0cfc9ea1805a12e2d141f5681fc46977d1f204eb&amp;dn=Cheryl+Cole+-+Parachute+%5BMusic+Video%5D+720p+%5BSbyky%5D&amp;tr=udp%3A%2F%2Ftracker.openbittorrent.com%3A80&amp;tr=udp%3A%2F%2Fopen.demonii.com%3A1337&amp;tr=udp%3A%2F%2Ftracker.coppersurfer.tk%3A6969&amp;tr=udp%3A%2F%2Fexodus.desync.com%3A6969","seeders":0,"leechers":2,"uploader":"Sbyky","files":-1,"time":1357417855,"description":" &lt;a href=&quot;http://kastatic.com/i2/u/1813980/0aq32UMZvX.gif&quot; rel=&quot;nofollow&quot; target=&quot;_NEW&quot;&gt;http://kastatic.com/i2/u/1813980/0aq32UMZvX.gif&lt;/a&gt;\n\nCover &lt;a href=&quot;\nhttp://www.shotpix.com/images/67299212065448475620.jpg&quot; rel=&quot;nofollow&quot; target=&quot;_NEW&quot;&gt;\nhttp://www.shotpix.com/images/67299212065448475620.jpg&lt;/a&gt;\n\nGeneral\nComplete name                            : Cheryl Cole - Parachute [Music Video] 720p [Sbyky].avi\nFormat                                   : AVI\nFormat/Info                              : Audio Video Interleave\nFile size                                : 99.0 MiB\nDuration                                 : 3mn 43s\nOverall bit rate                         : 3 723 Kbps\n\nVideo\nID                                       : 0\nFormat                                   : AVC\nFormat/Info                              : Advanced Video Codec\nFormat profile                           : &lt;a class=&quot;__cf_email__&quot; href=&quot;/cdn-cgi/l/email-protection&quot; data-cfemail=&quot;6820010f0028245d4659&quot;&gt;[email&amp;#160;protected]&lt;/a&gt;&lt;script cf-hash='f9e31' type=&quot;text/javascript&quot;&gt;\n/* &lt;![CDATA[ */!function(){try{var t=&quot;currentScript&quot;in document?document.currentScript:function(){for(var t=document.getElementsByTagName(&quot;script&quot;),e=t.length;e--;)if(t[e].getAttribute(&quot;cf-hash&quot;))return t[e]}();if(t&amp;&amp;t.previousSibling){var e,r,n,i,c=t.previousSibling,a=c.getAttribute(&quot;data-cfemail&quot;);if(a){for(e=&quot;&quot;,r=parseInt(a.substr(0,2),16),n=2;a.length-n;n+=2)i=parseInt(a.substr(n,2),16)^r,e+=String.fromCharCode(i);e=document.createTextNode(e),c.parentNode.replaceChild(e,c)}}}catch(u){}}();/* ]]&gt; */&lt;/script&gt;\nFormat settings, CABAC                   : Yes\nFormat settings, ReFrames                : 2 frames\nCodec ID                                 : H264\nDuration                                 : 3mn 43s\nBit rate                                 : 3 393 Kbps\nWidth                                    : 1 280 pixels\nHeight                                   : 720 pixels\nDisplay aspect ratio                     : 16:9\nFrame rate                               : 25.000 fps\nColor space                              : YUV\nChroma subsampling                       : 4:2:0\nBit depth                                : 8 bits\nScan type                                : Progressive\nBits/(Pixel*Frame)                       : 0.147\nStream size                              : 90.2 MiB (91%)\n\nAudio\nID                                       : 1\nFormat                                   : MPEG Audio\nFormat version                           : Version 1\nFormat profile                           : Layer 3\nCodec ID                                 : 55\nCodec ID/Hint                            : MP3\nDuration                                 : 3mn 43s\nBit rate mode                            : Constant\nBit rate                                 : 320 Kbps\nChannel(s)                               : 2 channels\nSampling rate                            : 44.1 KHz\nCompression mode                         : Lossy\nStream size                              : 8.51 MiB (9%)\nAlignment                                : Aligned on interleaves\nInterleave, duration                     : 41 ms (1.02 video frame)\nInterleave, preload duration             : 130 ms\nWriting library                          : LAMELAME_MAJOR_VERSI\n\nShared By Sbyky &lt;a href=&quot;\nhttp://kastatic.com/i2/u/1813980/bQg62viaEG.gif&quot; rel=&quot;nofollow&quot; target=&quot;_NEW&quot;&gt;\nhttp://kastatic.com/i2/u/1813980/bQg62viaEG.gif&lt;/a&gt;","torrent":{"xt":"urn:btih:0cfc9ea1805a12e2d141f5681fc46977d1f204eb","amp;dn":"Cheryl+Cole+-+Parachute+%5BMusic+Video%5D+720p+%5BSbyky%5D","amp;tr":["udp%3A%2F%2Ftracker.openbittorrent.com%3A80","udp%3A%2F%2Fopen.demonii.com%3A1337","udp%3A%2F%2Ftracker.coppersurfer.tk%3A6969","udp%3A%2F%2Fexodus.desync.com%3A6969"],"infoHash":"0cfc9ea1805a12e2d141f5681fc46977d1f204eb","infoHashBuffer":{"type":"Buffer","data":[12,252,158,161,128,90,18,226,209,65,245,104,31,196,105,119,209,242,4,235]},"announce":[],"urlList":[]}}